PathFileType	4	(X/Y/Z)	/Users/itak/Documents/Research/Walk-IL/dataset/trc/00062_00006.trc
DataRate	CameraRate	NumFrames	NumMarkers	Units	OrigDataRate	OrigDataStartFrame	OrigNumFrames
100.000000	100.000000	4	53	mm	100.000000	606	693
Frame#	Time	RPSI			LPSI			L3			STRN			T10			C7			CLAV			RBAK			LBAK			LSHO			LUPA			LAEL			LAOL			LWTS			LWPS			LFRA			LIFD			LHPS			LHTS			RSHO			RUPA			RAEL			RAOL			RWTS			RWPS			RFRA			RIFD			RHTS			RHPS			RBHD			LFHD			RFHD			LBHD			LHIP			RHIP			RASI			LASI			LKNE			LTHI			LANK			LTIP			LTOE			LMT1			LMT5			LHEE			RKNE			RTHI			RANK			RTIP			RTOE			RMT1			RMT5			RHEE			
		X1	Y1	Z1	X2	Y2	Z2	X3	Y3	Z3	X4	Y4	Z4	X5	Y5	Z5	X6	Y6	Z6	X7	Y7	Z7	X8	Y8	Z8	X9	Y9	Z9	X10	Y10	Z10	X11	Y11	Z11	X12	Y12	Z12	X13	Y13	Z13	X14	Y14	Z14	X15	Y15	Z15	X16	Y16	Z16	X17	Y17	Z17	X18	Y18	Z18	X19	Y19	Z19	X20	Y20	Z20	X21	Y21	Z21	X22	Y22	Z22	X23	Y23	Z23	X24	Y24	Z24	X25	Y25	Z25	X26	Y26	Z26	X27	Y27	Z27	X28	Y28	Z28	X29	Y29	Z29	X30	Y30	Z30	X31	Y31	Z31	X32	Y32	Z32	X33	Y33	Z33	X34	Y34	Z34	X35	Y35	Z35	X36	Y36	Z36	X37	Y37	Z37	X38	Y38	Z38	X39	Y39	Z39	X40	Y40	Z40	X41	Y41	Z41	X42	Y42	Z42	X43	Y43	Z43	X44	Y44	Z44	X45	Y45	Z45	X46	Y46	Z46	X47	Y47	Z47	X48	Y48	Z48	X49	Y49	Z49	X50	Y50	Z50	X51	Y51	Z51	X52	Y52	Z52	X53	Y53	Z53	

607	6.06	-850.4255981445312	1022.416259765625	652.0755004882812	-708.4154663085938	1007.00341796875	553.3782958984375	-769.9549560546875	1074.9482421875	598.5142822265625	-661.5127563476562	1282.53515625	818.5654296875	-768.4081420898438	1205.988647460938	572.0391235351562	-741.0882568359375	1475.427612304688	615.2901000976562	-674.0941772460938	1395.734008789062	785.1651611328125	-833.593994140625	1335.190673828125	592.9598388671875	-656.365966796875	1436.106689453125	556.6314086914062	-551.4321899414062	1443.635620117188	625.4122924804688	-482.5	1317.17333984375	589.303466796875	-441.2392272949219	1107.614990234375	615.8529052734375	-543.5747680664062	1082.50390625	590.4136962890625	-445.1712036132812	874.4404907226562	740.5310668945312	-409.2339782714844	862.75830078125	664.9415283203125	-417.7604675292969	1001.771850585938	639.3695678710938	-444.4725036621094	690.11962890625	764.7190551757812	-394.097900390625	784.6664428710938	701.4719848632812	-426.918701171875	793.845947265625	763.8494262695312	-878.0708618164062	1446.069091796875	742.3557739257812	-942.9082641601562	1383.638549804688	755.565673828125	-1021.530578613281	1136.300048828125	736.5358276367188	-929.7646484375	1098.001953125	721.15966796875	-969.7406005859375	874.192138671875	855.5993041992188	-1041.478271484375	868.8475341796875	806.3661499023438	-1036.922485351562	1055.719604492188	751.3326416015625	-968.5091552734375	684.0928955078125	840.9541625976562	-972.8873291015625	769.19091796875	872.0192260742188	-1041.367553710938	776.131591796875	835.3558349609375	-680.158203125	1651.006469726562	617.9432983398438	-723.8956909179688	1699.331909179688	824.3239135742188	-607.9408569335938	1703.496704101562	773.1803588867188	-801.362548828125	1640.416748046875	682.9248657226562	-573.4502563476562	948.0865478515625	595.1561279296875	-881.530517578125	956.0515747070312	753.4378051757812	-803.1007690429688	980.7543334960938	849.894775390625	-567.1152954101562	964.9803466796875	720.3611450195312	-564.6936645507812	480.1890258789062	742.2940063476562	-552.5150146484375	624.3177490234375	683.4299926757812	-752.4603881835938	167.4578399658203	405.76611328125	-653.5958862304688	318.549560546875	552.7079467773438	-701.999267578125	52.02762222290039	560.9307250976562	-763.3172607421875	83.34799194335938	545.0415649414062	-692.309814453125	91.71858215332031	458.5861511230469	-834.1936645507812	211.8931427001953	406.0303649902344	-766.2815551757812	530.2286987304688	890.3875732421875	-823.09326171875	795.1292724609375	859.6976928710938	-799.613037109375	42.72982406616211	845.3556518554688	-772.2351684570312	400.5562133789062	892.5575561523438	-634.2692260742188	43.51995849609375	991.900146484375	-642.0986938476562	51.11458969116211	920.2103881835938	-736.071533203125	46.91796875	953.1641845703125	-782.5560913085938	45.9068717956543	774.5761108398438	
608	6.07	-849.8857421875	1022.909729003906	658.7506103515625	-708.3345336914062	1007.478637695312	559.2411499023438	-769.9823608398438	1075.686645507812	604.7584838867188	-659.6279296875	1283.606811523438	823.7176513671875	-769.1162109375	1206.821655273438	578.166259765625	-740.8810424804688	1476.274047851562	621.0496215820312	-672.3246459960938	1396.775146484375	790.2399291992188	-833.80078125	1336.152221679688	599.75244140625	-656.8357543945312	1436.766723632812	561.5316162109375	-551.20654296875	1444.394653320312	629.215087890625	-482.6420288085938	1317.968139648438	592.0712890625	-440.8697814941406	1108.525146484375	617.538818359375	-543.7529296875	1083.293701171875	593.9072265625	-442.3100891113281	875.1875	741.9254150390625	-407.7985229492188	863.6061401367188	665.7464599609375	-416.9322814941406	1002.642456054688	640.4994506835938	-440.5026245117188	691.0637817382812	766.6429443359375	-391.6722106933594	785.5895385742188	702.0760498046875	-423.2852172851562	794.8251953125	765.042236328125	-876.6715698242188	1447.31884765625	749.4309692382812	-941.3326416015625	1384.955688476562	763.4454345703125	-1020.098693847656	1137.329223632812	746.4996948242188	-928.5331420898438	1099.365844726562	730.167724609375	-965.8560180664062	876.0789794921875	866.4441528320312	-1038.358276367188	870.2749633789062	818.3314208984375	-1035.154663085938	1056.71875	761.9085083007812	-964.5866088867188	685.8818969726562	852.7134399414062	-968.4996948242188	771.0504760742188	883.3416137695312	-1037.6630859375	777.7681884765625	847.8731689453125	-678.415283203125	1652.043701171875	623.487060546875	-722.3064575195312	1700.102172851562	829.9237060546875	-606.31689453125	1704.28173828125	778.8345336914062	-799.6227416992188	1641.3876953125	688.3692626953125	-573.1256103515625	949.1393432617188	600.7147827148438	-880.5069580078125	956.41455078125	760.13232421875	-801.80712890625	981.4336547851562	856.3125610351562	-566.1064453125	966.2575073242188	725.826904296875	-560.062744140625	482.485595703125	751.2146606445312	-548.9556274414062	626.21728515625	691.4190673828125	-749.107421875	164.6121520996094	420.2747497558594	-649.8004150390625	318.2461547851562	564.1580810546875	-694.1113891601562	52.68628311157227	576.0487060546875	-756.36572265625	82.45349884033203	560.7871704101562	-687.0587768554688	90.85250091552734	473.2275085449219	-831.5742797851562	207.7394256591797	421.0527038574219	-765.3575439453125	529.8272705078125	893.6065673828125	-821.505859375	795.233154296875	865.3026123046875	-799.4579467773438	42.74744033813477	845.3549194335938	-771.6968383789062	400.1656494140625	894.7113647460938	-634.194091796875	43.50008010864258	991.9235229492188	-642.0384521484375	51.02286148071289	920.1707153320312	-735.9478149414062	47.00192260742188	953.0137329101562	-782.4714965820312	46.01041793823242	774.5101318359375	
609	6.08	-849.2637329101562	1023.328857421875	665.259765625	-708.214111328125	1007.867431640625	564.9188232421875	-769.9776611328125	1076.398071289062	610.8478393554688	-657.7432861328125	1284.623779296875	828.7438354492188	-769.7645263671875	1207.6279296875	584.1895141601562	-740.719970703125	1477.083984375	626.6843872070312	-670.585205078125	1397.755737304688	795.1969604492188	-834.0050659179688	1337.069213867188	606.4109497070312	-657.3299560546875	1437.401489257812	566.314208984375	-551.0075073242188	1445.125244140625	632.9189453125	-482.8021240234375	1318.751708984375	594.6867065429688	-440.5496215820312	1109.37109375	618.9373168945312	-544.0054931640625	1084.061645507812	597.2357177734375	-439.4702453613281	876.0252685546875	743.2361450195312	-406.6612548828125	864.3668212890625	666.4130859375	-416.2239990234375	1003.411926269531	641.3600463867188	-436.7898559570312	692.1234130859375	768.7476196289062	-389.5623474121094	786.4521484375	702.5819091796875	-419.7240295410156	795.8923950195312	766.2072143554688	-875.2879638671875	1448.48779296875	756.3655395507812	-939.759765625	1386.161010742188	771.1602783203125	-1018.697631835938	1138.306518554688	756.2471313476562	-927.4051513671875	1100.736694335938	738.9471435546875	-961.9725341796875	877.934326171875	877.0547485351562	-1035.168212890625	871.6174926757812	830.0343017578125	-1033.410888671875	1057.662475585938	772.2750244140625	-960.4608154296875	687.6829833984375	864.370849609375	-964.0593872070312	772.9226684570312	894.5092163085938	-1033.833862304688	779.3546752929688	860.1580810546875	-676.6776123046875	1653.01708984375	628.87353515625	-720.6971435546875	1700.844482421875	835.3464965820312	-604.6934814453125	1705.015991210938	784.3173217773438	-797.8881225585938	1642.32861328125	693.65966796875	-572.7532958984375	950.1370849609375	606.0977783203125	-879.4708862304688	956.7528076171875	766.6324462890625	-800.4898071289062	982.054443359375	862.5355834960938	-565.1010131835938	967.4486694335938	731.144287109375	-555.6873779296875	484.71875	759.6788940429688	-545.600341796875	628.0906982421875	699.0219116210938	-745.4239501953125	161.0180816650391	434.8601989746094	-646.0070190429688	317.4376220703125	575.47314453125	-686.2042236328125	53.17016220092773	591.51025390625	-749.28662109375	81.36494445800781	576.7755126953125	-681.706787109375	89.29862213134766	488.1184387207031	-828.5970458984375	202.8504028320312	435.9530334472656	-764.5755004882812	529.42919921875	896.6101684570312	-819.9404296875	795.3116455078125	870.7191772460938	-799.3035888671875	42.75312805175781	845.362548828125	-771.2870483398438	399.7990112304688	896.6759033203125	-634.1317138671875	43.46824264526367	991.9559326171875	-641.9878540039062	50.94086456298828	920.1438598632812	-735.8433227539062	47.07526397705078	952.8815307617188	-782.3920288085938	46.1040153503418	774.4489135742188	
610	6.09	-848.5776977539062	1023.699035644531	671.615966796875	-708.0677490234375	1008.197509765625	570.4290161132812	-769.9465942382812	1077.076049804688	616.7904052734375	-655.854736328125	1285.579956054688	833.6401977539062	-770.3206787109375	1208.408325195312	590.1300659179688	-740.5960693359375	1477.850341796875	632.199462890625	-668.8682250976562	1398.671875	800.039794921875	-834.2041625976562	1337.93408203125	612.9385986328125	-657.8468627929688	1438.011962890625	570.9880981445312	-550.8321533203125	1445.813842773438	636.5160522460938	-482.9860534667969	1319.499755859375	597.16552734375	-440.284912109375	1110.136474609375	620.1189575195312	-544.3076782226562	1084.785034179688	600.4232177734375	-436.6748657226562	876.912109375	744.4834594726562	-405.7928466796875	865.0192260742188	666.9879760742188	-415.6280822753906	1004.065002441406	642.01513671875	-433.348876953125	693.2418212890625	770.9766845703125	-387.7692565917969	787.2230834960938	703.0209350585938	-416.2765502929688	796.9930419921875	767.3484497070312	-873.911376953125	1449.563842773438	763.1671752929688	-938.1924438476562	1387.248779296875	778.7264404296875	-1017.337158203125	1139.226440429688	765.7727661132812	-926.4066162109375	1102.078002929688	747.4646606445312	-958.11865234375	879.7491455078125	887.424560546875	-1031.919067382812	872.8533325195312	841.4465942382812	-1031.700805664062	1058.544067382812	782.4192504882812	-956.1015014648438	689.485107421875	875.9219360351562	-959.581298828125	774.8082885742188	905.5270385742188	-1029.8857421875	780.8746337890625	872.1810302734375	-674.9555053710938	1653.925537109375	634.1063232421875	-719.081298828125	1701.549072265625	840.5923461914062	-603.0763549804688	1705.698486328125	789.6361694335938	-796.1741333007812	1643.234985351562	698.7998046875	-572.3602294921875	951.0767211914062	611.2986450195312	-878.43115234375	957.0965576171875	772.9644775390625	-799.1471557617188	982.6170654296875	868.5849609375	-564.1381225585938	968.5405883789062	736.3029174804688	-551.537353515625	486.8643798828125	767.6549072265625	-542.4649047851562	629.91796875	706.1993408203125	-741.4310913085938	156.7899169921875	449.4599914550781	-642.201904296875	316.1814270019531	586.5964965820312	-678.20361328125	53.4963493347168	607.1741943359375	-742.0342407226562	80.0877685546875	592.8976440429688	-676.1749877929688	87.17973327636719	503.1343994140625	-825.2882690429688	197.3088836669922	450.7189636230469	-763.9688720703125	529.0469970703125	899.4070434570312	-818.4461669921875	795.376220703125	875.93994140625	-799.16943359375	42.74829864501953	845.3732299804688	-771.0175170898438	399.4688720703125	898.4716796875	-634.0883178710938	43.42995452880859	991.9925537109375	-641.9513549804688	50.87857818603516	920.1300048828125	-735.7697143554688	47.13178253173828	952.7813720703125	-782.3272094726562	46.18750762939453	774.3955688476562	
